# xmcd
#
# Track frame offsets:
#	150
#	11712
#	24352
#	38905
#	56155
#	70197
#	85422
#	103122
#	119492
#	130885
#	141902
#	156560
#	170785
#	191192
#	205442
#	219505
#	233457
#	248000
#	261672
#	273367
#
# Disc length: 3831 seconds
#
# Revision: 0
# Processed by: cddbd v1.4PL0 Copyright (c) Steve Scherf et al.
# Submitted via: audiograbber 1.81.02
#
DISCID=370ef514
DTITLE=Slim Dusty - The Anniversary Album No.2
DYEAR=1993
DGENRE=Country
TTITLE0=Song For The Aussies
TTITLE1=Spirit Of Australia
TTITLE2=Plains Of Peppimenarti
TTITLE3=Where Country Is
TTITLE4=G'Day Blue
TTITLE5=No Place On Earth Like Australia
TTITLE6=The Brass Well
TTITLE7=Banjo's Man
TTITLE8=Australia's On The Wallaby
TTITLE9=You've Got To Drink The Froth To Get The Beer
TTITLE10=Traveller's Prayer
TTITLE11=Cattlemen From The High Plains
TTITLE12=We've Done Us Proud
TTITLE13=G'Day G'Day
TTITLE14=King Of Kalgoorlie
TTITLE15=The Flying Doctor's Ball
TTITLE16=Lace Up Shoes
TTITLE17=Things Are Not The Same On The Land
TTITLE18=She'll Be Right, Mate
TTITLE19=The Drovers Are Back
EXTD=
EXTT0=
EXTT1=
EXTT2=
EXTT3=
EXTT4=
EXTT5=
EXTT6=
EXTT7=
EXTT8=
EXTT9=
EXTT10=
EXTT11=
EXTT12=
EXTT13=
EXTT14=
EXTT15=
EXTT16=
EXTT17=
EXTT18=
EXTT19=
PLAYORDER=
